<svg width="126" height="82" viewBox="0 0 126 82" fill="none" xmlns="http://www.w3.org/2000/svg">
<g clip-path="url(#clip0_1420_104270)">
<rect width="126" height="82" fill="white"/>
<rect y="67" width="126" height="15" fill="#349933"/>
<path d="M2.61 30.06V28.84H20.483V30.06H17.494L25.851 48.909L29.755 39.21L25.668 30.06H23.35V28.84H40.064V30.06H37.197L45.371 48.665L51.837 30.06H46.957V28.84H57.449V30.06H53.301L41.894 63H40.43L40.674 62.329L40.369 63L30.548 40.918L21.703 63H20.239L5.538 30.06H2.61Z" fill="#38389B"/>
<path d="M64.36 62.22H66.31V63H56.56V62.22H58.51V45.84H56.95V45.06H64.36V62.22ZM64.711 39.912C64.711 40.848 64.373 41.654 63.697 42.33C63.047 42.98 62.241 43.305 61.279 43.305C60.343 43.305 59.537 42.98 58.861 42.33C58.185 41.654 57.847 40.848 57.847 39.912C57.847 38.95 58.185 38.131 58.861 37.455C59.537 36.779 60.343 36.441 61.279 36.441C62.241 36.441 63.047 36.779 63.697 37.455C64.373 38.131 64.711 38.95 64.711 39.912ZM76.2282 45.84V55.356C76.2282 57.592 76.3192 58.957 76.5012 59.451C76.6832 59.919 76.8782 60.322 77.0862 60.66C77.4762 61.336 78.1522 61.674 79.1142 61.674C80.1022 61.674 80.7912 61.544 81.1812 61.284V62.064C79.9332 62.948 78.5682 63.39 77.0862 63.39C74.9022 63.39 73.2382 62.87 72.0942 61.83C70.9502 60.79 70.3782 58.931 70.3782 56.253V45.84H67.4922V45.06H70.3782C71.6262 44.852 72.7312 44.254 73.6932 43.266C74.6552 42.252 75.3182 40.861 75.6822 39.093H76.2282V45.06H80.7522V45.84H76.2282ZM82.754 54.03C82.754 50.962 83.651 48.635 85.445 47.049C87.239 45.463 89.514 44.67 92.27 44.67C95.052 44.67 97.119 45.372 98.471 46.776C99.823 48.154 100.304 49.584 99.914 51.066C99.706 51.872 99.264 52.47 98.588 52.86C97.938 53.224 97.223 53.315 96.443 53.133C94.805 52.743 93.986 51.794 93.986 50.286C93.986 49.896 94.025 49.311 94.103 48.531C94.207 47.725 94.246 47.14 94.22 46.776C94.194 46.412 94.116 46.126 93.986 45.918C93.726 45.476 93.115 45.307 92.153 45.411C89.813 45.775 88.643 48.648 88.643 54.03C88.643 59.386 90.554 62.064 94.376 62.064C95.26 62.064 96.157 61.83 97.067 61.362C97.977 60.894 98.653 60.335 99.095 59.685L99.641 60.075C99.043 61.063 98.146 61.856 96.95 62.454C95.754 63.052 94.415 63.351 92.933 63.351C86.147 63.351 82.754 60.244 82.754 54.03ZM109.193 60.66C109.765 61.96 110.753 62.61 112.157 62.61C113.561 62.61 114.562 61.947 115.16 60.621C115.758 59.295 116.057 57.111 116.057 54.069C116.057 51.001 115.758 48.804 115.16 47.478C114.562 46.126 113.561 45.45 112.157 45.45C110.753 45.45 109.765 46.126 109.193 47.478C108.621 48.804 108.335 51.001 108.335 54.069C108.335 57.137 108.621 59.334 109.193 60.66ZM112.079 63.39C109.609 63.39 107.373 62.584 105.371 60.972C103.369 59.36 102.368 57.072 102.368 54.108C102.368 52.522 102.654 51.105 103.226 49.857C103.824 48.609 104.604 47.621 105.566 46.893C106.554 46.165 107.607 45.619 108.725 45.255C109.843 44.865 110.987 44.67 112.157 44.67C113.327 44.67 114.471 44.865 115.589 45.255C116.733 45.619 117.786 46.165 118.748 46.893C119.736 47.621 120.529 48.609 121.127 49.857C121.725 51.105 122.024 52.509 122.024 54.069C122.024 55.629 121.725 57.02 121.127 58.242C120.529 59.464 119.736 60.439 118.748 61.167C116.772 62.649 114.549 63.39 112.079 63.39Z" fill="#38389B"/>
<path d="M-2 3L16.0576 7.61044C19.6286 8.52219 23.3714 8.52219 26.9424 7.61044L39.0032 4.5311C42.9249 3.5298 47.0469 3.62982 50.9155 4.82015L58.7982 7.24561C62.532 8.39446 66.5043 8.52839 70.307 7.63365L84.8039 4.2226C88.2184 3.41919 91.7756 3.44389 95.1786 4.29465L106.105 7.02617C111.2 8.29988 116.582 7.70904 121.279 5.36043L128 2" stroke="#349933" stroke-width="3"/>
<path d="M-2 14L16.0576 18.6104C19.6286 19.5222 23.3714 19.5222 26.9424 18.6104L39.0032 15.5311C42.9249 14.5298 47.0469 14.6298 50.9155 15.8202L58.7982 18.2456C62.532 19.3945 66.5043 19.5284 70.307 18.6337L84.8039 15.2226C88.2184 14.4192 91.7756 14.4439 95.1786 15.2946L106.105 18.0262C111.2 19.2999 116.582 18.709 121.279 16.3604L128 13" stroke="#349933" stroke-width="10"/>
</g>
<defs>
<clipPath id="clip0_1420_104270">
<rect width="126" height="82" fill="white"/>
</clipPath>
</defs>
</svg>
